<svg 
 xmlns="http://www.w3.org/2000/svg"
 xmlns:xlink="http://www.w3.org/1999/xlink"
 width="420px" height="79px">
  <def>
    <style> 
      .p {
        animation: stroke 10s ease forwards infinite;
        transform-origin: center;
        stroke: #10b981;
        stroke-width: 1;
        stroke-dashoffset: 1px;
        stroke-dasharray: 350px 0;
        animation-delay: 0s;
      }
      @keyframes stroke {
        0% {
          stroke-dashoffset: 339px;
          stroke-dasharray: 0 350px;
          opacity: 0;
        }
        10% {
          opacity: 1;
        }
        40% {
          stroke-dasharray: 350px 0;
        }
        85% {
          stroke-dasharray: 350px 0;
        }
        95%, 100% {
          stroke-dasharray: 0 350px;
        }
      }
    </style>
  </def>
<path class="p1" fill-rule="evenodd"  fill="#10b981"
 d="M419.453,18.661 C420.536,20.043 419.778,20.965 417.180,20.734 C415.230,20.581 412.415,20.734 410.033,20.965 C405.918,25.955 399.746,33.555 395.956,39.390 C394.657,41.463 394.007,43.459 394.007,45.148 C394.007,47.451 395.090,49.064 396.931,49.064 C401.154,49.064 406.784,44.227 410.574,38.469 C411.765,36.626 414.256,36.473 415.014,38.546 C415.555,40.158 415.122,41.309 413.931,43.075 C412.415,45.378 405.160,51.981 396.065,51.981 C390.326,51.981 385.345,48.680 385.345,43.382 C385.345,43.255 385.356,43.120 385.363,42.988 C385.205,43.296 385.028,43.606 384.806,43.920 C381.558,48.756 374.086,51.981 367.698,51.981 C361.093,51.981 358.169,49.294 358.169,45.455 C358.169,44.903 358.232,44.328 358.356,43.719 C356.195,46.465 350.717,51.749 341.715,51.674 C333.702,51.597 327.205,47.144 327.205,36.396 C324.282,40.081 321.358,44.764 317.893,50.522 C317.135,51.597 315.403,51.981 314.103,50.829 C313.021,49.985 312.371,48.910 312.371,47.298 C312.371,46.811 312.425,46.248 312.554,45.612 C309.171,48.345 303.006,51.827 296.240,51.827 C289.635,51.827 285.520,49.140 285.520,43.843 C285.520,42.538 285.737,41.002 286.278,39.467 C290.501,26.723 302.737,12.519 313.349,4.612 C315.406,3.153 317.355,2.692 319.412,4.074 C321.795,5.533 322.986,7.683 322.986,9.679 C322.986,10.754 322.878,11.598 322.336,12.903 C318.979,22.039 307.177,31.099 297.648,35.628 C295.482,39.544 294.075,42.998 294.075,45.686 C294.075,47.528 294.724,48.833 296.132,48.833 C301.113,48.833 307.393,43.689 311.508,38.162 C312.882,36.289 315.179,36.249 315.994,38.103 C322.342,27.261 335.398,9.552 343.773,1.387 C345.505,-0.148 347.238,-0.148 348.429,1.464 C349.078,2.385 349.512,3.383 349.512,4.458 C349.512,7.452 344.639,13.287 338.142,21.655 C340.091,20.657 341.932,20.120 343.773,19.659 C348.645,18.431 351.569,19.659 353.951,23.191 C354.817,24.343 355.250,25.571 355.250,26.876 C355.250,28.719 354.168,30.638 351.461,32.481 C347.996,34.861 343.556,37.010 337.167,38.546 C337.601,44.304 340.199,48.526 343.448,48.526 C347.129,48.526 353.085,43.152 356.117,38.699 C357.416,36.857 358.824,36.703 359.798,38.622 C359.909,38.826 359.978,39.076 360.020,39.348 C363.025,33.927 369.354,25.861 373.112,22.116 C374.736,20.581 376.035,20.427 377.443,21.579 C379.500,23.114 380.367,26.415 377.551,30.254 C375.494,33.555 370.513,39.313 368.672,42.384 C367.698,44.150 367.156,45.762 367.156,46.991 C367.156,48.219 367.589,48.910 368.781,48.910 C373.112,48.910 378.742,43.766 382.099,38.546 C382.965,37.164 384.373,37.317 385.348,38.699 C385.685,39.151 385.884,39.681 385.952,40.259 C386.304,39.261 386.811,38.179 387.510,37.010 C389.676,33.248 393.791,27.183 398.122,21.655 C394.765,21.348 392.816,20.504 391.950,19.583 C390.434,17.970 391.517,17.203 394.007,17.279 C396.498,17.356 399.421,17.279 401.804,17.126 C405.160,12.980 407.434,10.447 409.925,7.913 C411.549,6.224 412.848,6.301 414.039,7.759 C414.797,8.681 415.230,9.986 415.230,10.907 C415.230,12.289 414.797,14.055 413.498,16.205 C416.855,16.512 418.695,17.740 419.453,18.661 ZM312.482,19.659 C316.164,15.283 317.572,11.905 316.922,11.598 C316.489,11.445 313.674,14.439 309.992,18.968 C307.177,22.346 302.412,28.104 301.654,29.410 C306.310,26.185 309.992,22.654 312.482,19.659 ZM342.690,29.486 C347.021,26.953 348.970,24.419 347.996,23.421 C347.129,22.500 343.339,23.421 338.359,26.108 C334.677,28.104 331.645,30.868 328.397,34.707 C331.537,33.939 339.116,31.559 342.690,29.486 ZM383.182,21.655 C379.717,21.655 376.793,19.352 376.793,16.972 C376.793,14.823 379.067,12.827 381.558,12.827 C384.590,12.827 387.513,15.590 387.513,17.817 C387.513,19.890 385.889,21.655 383.182,21.655 ZM278.491,35.628 C276.217,42.000 269.287,49.524 261.058,51.520 C260.083,51.751 258.784,51.981 257.160,51.981 C253.586,51.981 249.580,50.906 246.548,48.066 C244.491,46.146 243.516,43.843 243.516,41.386 C243.516,39.237 244.057,37.471 245.249,35.168 C244.057,35.398 242.650,35.551 241.459,35.628 C239.185,42.000 232.255,49.524 224.025,51.520 C223.051,51.751 221.751,51.981 220.127,51.981 C216.554,51.981 212.547,50.906 209.516,48.066 C207.991,46.643 207.064,45.009 206.684,43.258 C204.929,45.707 197.813,51.981 188.945,51.981 C183.206,51.981 178.225,48.680 178.225,43.382 C178.225,41.693 178.875,39.544 180.391,37.010 C182.557,33.248 186.671,27.183 191.002,21.655 C187.646,21.348 185.697,20.504 184.830,19.583 C183.314,17.970 184.397,17.203 186.888,17.279 C189.378,17.356 192.302,17.279 194.684,17.126 C198.041,12.980 200.315,10.447 202.805,7.913 C204.429,6.224 205.729,6.301 206.920,7.759 C207.678,8.681 208.111,9.986 208.111,10.907 C208.111,12.289 207.678,14.055 206.379,16.205 C209.735,16.512 211.576,17.740 212.334,18.661 C213.417,20.043 212.659,20.965 210.060,20.734 C208.111,20.581 205.296,20.734 202.913,20.965 C198.799,25.955 192.627,33.555 188.837,39.390 C187.537,41.463 186.888,43.459 186.888,45.148 C186.888,47.451 187.971,49.064 189.811,49.064 C194.034,49.064 199.665,44.227 203.455,38.469 C204.383,37.034 206.096,36.629 207.167,37.498 C207.920,35.239 209.260,32.908 211.031,30.638 C215.904,24.496 222.726,20.657 229.873,20.657 C233.013,20.657 234.962,21.502 237.019,23.498 C240.051,26.032 242.758,26.646 242.217,32.327 C245.573,31.559 249.038,29.256 251.529,26.953 C255.968,23.728 260.300,20.657 266.905,20.657 C270.045,20.657 271.994,21.502 274.052,23.498 C277.083,26.032 280.115,26.569 279.141,33.095 C281.956,33.095 282.173,33.786 281.306,34.553 C280.548,35.168 279.682,35.475 278.491,35.628 ZM225.650,28.258 C223.376,29.793 221.318,31.713 219.477,34.016 C216.662,37.701 214.930,42.000 214.930,44.841 C214.930,47.144 215.904,48.066 217.528,48.066 C220.344,48.066 224.675,45.225 228.681,40.004 C230.306,38.008 231.605,36.089 232.255,34.477 C228.790,32.941 226.516,30.945 225.650,28.258 ZM233.879,25.341 C233.229,25.341 232.255,25.955 232.255,27.183 C232.255,28.565 232.796,30.561 233.987,31.559 C235.070,29.793 235.503,27.951 235.503,26.953 C235.503,25.801 234.637,25.341 233.879,25.341 ZM262.682,28.258 C260.408,29.793 258.351,31.713 256.510,34.016 C253.695,37.701 251.962,42.000 251.962,44.841 C251.962,47.144 252.937,48.066 254.561,48.066 C257.376,48.066 261.707,45.225 265.714,40.004 C267.338,38.008 268.637,36.089 269.287,34.477 C265.822,32.941 263.548,30.945 262.682,28.258 ZM270.911,25.341 C270.262,25.341 269.287,25.955 269.287,27.183 C269.287,28.565 269.829,30.561 271.020,31.559 C272.102,29.793 272.536,27.951 272.536,26.953 C272.536,25.801 271.669,25.341 270.911,25.341 ZM170.975,35.168 C169.784,35.091 168.701,35.091 167.618,35.091 C161.879,35.091 156.465,35.935 152.242,35.782 C146.611,35.628 144.338,33.862 143.471,31.406 C143.255,30.638 144.229,29.870 145.853,29.870 C153.650,29.870 159.280,29.256 164.261,29.256 C170.325,29.256 172.599,31.175 173.357,33.555 C173.682,34.553 173.140,35.244 170.975,35.168 ZM121.279,52.058 C114.132,52.058 110.884,49.524 110.884,45.532 C110.884,40.695 116.189,34.016 120.304,29.486 C122.361,26.953 123.986,25.110 123.228,25.110 C122.253,25.110 111.966,29.947 106.228,36.550 C102.546,40.849 98.648,46.146 96.049,50.753 C95.183,52.135 93.559,52.365 92.259,51.213 C90.613,49.827 89.170,48.088 91.352,43.571 C86.998,48.094 79.965,50.880 71.258,53.440 C65.302,63.574 57.939,75.858 48.518,78.391 C46.028,79.082 43.754,79.082 41.155,76.625 C39.531,75.013 37.907,72.710 37.907,70.253 C37.907,69.332 38.232,68.027 38.881,66.645 C42.238,60.042 51.009,55.359 61.512,52.365 L63.136,49.678 C60.321,51.136 57.506,51.827 54.257,51.827 C48.951,51.827 46.563,49.024 46.470,45.877 C42.867,49.365 36.999,52.058 31.198,52.058 C24.052,52.058 20.803,49.524 20.803,45.532 C20.803,40.695 26.109,34.016 30.224,29.486 C32.281,26.953 33.906,25.110 33.148,25.110 C32.173,25.110 21.886,29.947 16.147,36.550 C12.466,40.849 8.568,46.146 5.969,50.753 C5.103,52.135 3.478,52.365 2.179,51.213 C0.446,49.755 -1.069,47.912 1.638,42.845 C5.969,34.784 27.409,9.065 36.179,1.080 C37.912,-0.455 39.536,-0.148 40.511,1.387 C41.052,2.232 41.377,3.230 41.377,4.305 C41.377,6.378 40.078,9.218 37.479,12.443 C35.313,14.976 28.600,22.116 27.517,23.191 C30.765,21.502 34.555,20.581 36.613,20.581 C39.753,20.581 42.893,22.961 42.893,25.955 C42.893,27.030 42.568,28.104 41.702,29.179 C35.746,36.703 33.039,39.928 31.848,41.770 C30.874,43.459 30.441,45.071 30.441,46.300 C30.441,47.912 30.982,48.910 32.498,48.910 C36.288,48.910 42.027,43.459 45.275,38.776 C46.033,37.624 47.766,37.471 48.632,38.776 C48.643,38.795 48.655,38.820 48.667,38.841 C51.394,33.996 56.307,27.097 62.378,21.195 C63.786,19.890 65.410,19.813 66.601,21.041 C67.684,22.116 68.659,23.498 68.659,24.726 C68.659,26.646 67.359,28.872 64.869,31.713 C61.187,35.859 58.913,39.006 56.856,42.615 C55.340,45.378 54.366,48.449 57.181,48.449 C59.996,48.449 64.869,43.920 70.175,37.548 C77.430,28.872 80.353,24.189 82.952,21.425 C84.468,20.043 85.876,19.890 87.067,20.734 C88.691,21.886 89.124,23.037 89.124,24.650 C89.124,26.185 88.583,27.874 87.175,29.793 C84.035,34.093 78.404,41.540 73.965,48.833 C80.570,45.993 86.200,42.077 89.666,38.622 C91.073,37.240 92.697,37.087 93.131,38.085 C93.385,38.662 93.462,39.413 93.292,40.250 C99.824,30.276 118.282,8.343 126.260,1.080 C127.992,-0.455 129.616,-0.148 130.591,1.387 C131.132,2.232 131.457,3.230 131.457,4.305 C131.457,6.378 130.158,9.218 127.559,12.443 C125.393,14.976 118.680,22.116 117.597,23.191 C120.846,21.502 124.635,20.581 126.693,20.581 C129.833,20.581 132.973,22.961 132.973,25.955 C132.973,27.030 132.648,28.104 131.782,29.179 C125.827,36.703 123.119,39.928 121.928,41.770 C120.954,43.459 120.521,45.071 120.521,46.300 C120.521,47.912 121.062,48.910 122.578,48.910 C126.368,48.910 132.107,43.459 135.355,38.776 C136.113,37.624 137.846,37.471 138.712,38.776 C139.253,39.697 140.011,41.463 138.387,43.766 C135.247,48.219 128.209,52.058 121.279,52.058 ZM47.544,66.184 C44.837,69.792 44.079,72.940 45.162,73.631 C45.920,74.092 48.194,71.865 51.225,68.103 C53.499,65.263 56.098,61.501 58.697,57.355 C53.499,59.889 49.818,63.190 47.544,66.184 Z"/>
</svg>