<svg xmlns="http://www.w3.org/2000/svg" version="1.1" viewBox="0.00 0.00 191.00 188.00" width="191.00" height="188.00">
<def>
  <style> 
    .p {
      fill: rgba(16, 185, 129, 0);
      animation: stroke 12s ease forwards infinite;
      transform-origin: center;
      stroke: #10b981;
      stroke-width: 1;
      stroke-dasharray: 350px 0;
      animation-delay: 0s;
    }
    @keyframes stroke {
      0% {
        stroke-dasharray: 0 350px;
        opacity: 0;
      }
      10% {
        opacity: 1;
      }
      30% {
        fill: rgba(16, 185, 129, 0);
      }
      40% {
        fill: rgba(16, 185, 129, 1);
      }
      50% {
        stroke-dasharray: 350px 0;
      }
      95%, 100% {
        stroke-dasharray: 0 350px;
      }
    }
  </style>
</def>
<path class="p" fill="#10b981" fill-opacity="0.976" d="&#10;  M 134.56 0.00&#10;  L 135.56 0.00&#10;  Q 135.83 0.26 136.25 0.27&#10;  Q 136.73 0.28 136.49 0.70&#10;  Q 136.32 0.98 135.92 0.96&#10;  C 131.76 0.83 128.56 3.62 125.41 6.74&#10;  C 123.09 9.02 122.67 12.86 121.76 15.88&#10;  Q 121.38 17.14 121.21 15.84&#10;  C 120.86 13.30 122.89 7.55 124.78 6.02&#10;  C 128.03 3.39 130.14 1.00 134.56 0.00&#10;  Z"/>
<path class="p" fill="#10b981" fill-opacity="0.976" d="&#10;  M 141.71 2.01&#10;  Q 139.51 1.20 137.21 0.75&#10;  Q 134.81 0.28 137.26 0.22&#10;  Q 140.89 0.14 143.57 2.35&#10;  Q 143.96 2.67 144.46 2.69&#10;  Q 149.01 2.86 151.18 6.83&#10;  Q 151.45 7.31 151.98 7.47&#10;  L 153.11 7.80&#10;  Q 153.69 7.98 153.80 8.57&#10;  Q 154.49 12.27 155.94 15.70&#10;  C 156.84 17.83 156.57 19.38 156.62 21.55&#10;  Q 156.66 23.23 156.05 21.66&#10;  Q 155.29 19.75 155.51 17.68&#10;  Q 155.57 17.14 155.40 16.63&#10;  L 153.17 9.85&#10;  Q 153.04 9.45 152.71 9.20&#10;  C 149.83 6.97 148.27 3.22 144.12 3.77&#10;  Q 143.66 3.83 143.35 3.49&#10;  L 142.50 2.54&#10;  Q 142.17 2.18 141.71 2.01&#10;  Z"/>
<path class="p" fill="#10b981" fill-opacity="0.976" d="&#10;  M 141.58 15.25&#10;  A 1.00 0.99 62.9 0 0 140.10 14.77&#10;  Q 136.25 17.33 138.03 21.75&#10;  Q 138.21 22.20 137.73 22.21&#10;  Q 137.22 22.22 137.10 21.81&#10;  Q 135.53 16.75 139.89 13.87&#10;  A 1.80 1.80 0.0 0 1 142.68 15.27&#10;  C 142.77 16.92 142.77 22.35 144.51 23.00&#10;  Q 145.07 23.21 144.70 23.68&#10;  Q 144.21 24.28 143.40 23.84&#10;  Q 142.89 23.56 142.78 22.99&#10;  C 142.32 20.39 142.48 17.64 141.58 15.25&#10;  Z"/>
<path class="p" fill="#10b981" fill-opacity="0.976" d="&#10;  M 108.75 74.75&#10;  Q 106.25 76.08 106.29 79.15&#10;  Q 106.30 79.67 105.93 80.05&#10;  Q 104.18 81.86 105.18 84.60&#10;  Q 105.45 85.33 104.67 85.43&#10;  L 102.66 85.66&#10;  Q 102.09 85.73 101.92 85.18&#10;  C 100.96 82.10 96.29 82.55 93.63 81.05&#10;  Q 92.56 80.45 93.76 80.73&#10;  C 95.21 81.08 100.97 82.89 102.00 82.00&#10;  Q 101.58 83.75 102.87 84.68&#10;  Q 103.41 85.07 103.57 84.43&#10;  L 104.04 82.59&#10;  Q 104.19 81.97 103.57 81.80&#10;  Q 102.80 81.59 102.00 82.00&#10;  Q 101.28 80.11 101.62 78.23&#10;  Q 102.31 74.46 102.17 78.28&#10;  Q 102.09 80.35 103.97 81.11&#10;  Q 104.58 81.35 104.79 80.73&#10;  L 105.57 78.42&#10;  Q 105.89 77.49 104.91 77.38&#10;  L 102.39 77.11&#10;  Q 101.90 77.06 101.99 76.56&#10;  Q 102.91 71.62 104.54 66.94&#10;  C 106.12 62.44 105.97 57.81 108.03 53.31&#10;  Q 109.09 51.00 109.17 49.01&#10;  Q 109.38 44.33 109.26 39.60&#10;  Q 109.25 39.09 109.70 39.32&#10;  C 110.44 39.70 110.24 46.40 110.19 47.39&#10;  Q 110.16 47.85 110.58 47.67&#10;  Q 113.21 46.58 113.24 44.50&#10;  C 113.33 36.99 112.77 24.07 108.99 16.69&#10;  Q 108.76 16.25 108.29 16.12&#10;  Q 106.71 15.68 105.29 16.30&#10;  Q 104.59 16.61 105.04 17.23&#10;  C 108.87 22.45 109.49 31.11 109.55 37.36&#10;  Q 109.56 37.87 109.08 37.69&#10;  C 109.05 37.68 107.43 24.97 107.24 24.00&#10;  Q 106.64 21.06 104.79 18.26&#10;  Q 104.49 17.81 103.96 17.76&#10;  Q 98.48 17.25 94.02 20.50&#10;  Q 93.59 20.82 93.06 20.85&#10;  Q 90.14 21.04 87.64 22.42&#10;  Q 87.15 22.69 86.98 23.23&#10;  C 86.03 26.35 83.82 28.38 82.33 30.63&#10;  C 79.14 35.43 76.32 40.50 72.91 45.13&#10;  C 70.18 48.85 69.87 52.64 71.62 56.66&#10;  Q 74.88 64.16 80.32 73.47&#10;  Q 80.55 73.87 81.01 73.81&#10;  L 81.30 73.77&#10;  Q 81.60 73.72 81.87 73.89&#10;  L 91.94 79.92&#10;  Q 92.34 80.15 91.89 80.26&#10;  C 90.46 80.59 83.64 75.82 82.22 74.74&#10;  A 0.44 0.43 -67.3 0 0 81.52 75.03&#10;  L 80.86 80.51&#10;  Q 80.82 80.85 80.48 80.74&#10;  Q 80.37 80.71 80.24 80.66&#10;  Q 80.02 80.59 80.05 80.36&#10;  Q 80.10 79.82 79.88 79.40&#10;  Q 79.53 78.70 79.14 79.38&#10;  C 78.46 80.57 74.28 87.55 72.92 87.08&#10;  Q 72.40 86.90 72.15 87.39&#10;  Q 69.94 91.87 66.82 94.08&#10;  Q 55.23 102.31 47.69 112.28&#10;  C 45.91 114.63 43.98 116.29 41.87 118.19&#10;  Q 41.50 118.53 41.50 119.03&#10;  C 41.51 123.54 39.58 128.17 38.02 132.39&#10;  A 0.47 0.47 0.0 0 1 37.12 132.12&#10;  L 37.95 128.75&#10;  Q 37.98 128.61 37.88 128.51&#10;  L 37.44 128.06&#10;  Q 36.77 127.40 37.71 127.48&#10;  Q 37.97 127.50 38.27 127.50&#10;  Q 38.57 127.49 38.73 127.22&#10;  Q 40.72 123.70 40.19 119.67&#10;  Q 40.12 119.14 40.45 118.72&#10;  C 42.69 115.91 45.60 114.00 47.65 111.22&#10;  C 52.51 104.65 58.46 98.79 65.27 94.20&#10;  Q 70.52 90.64 72.83 82.63&#10;  A 0.08 0.07 -59.4 0 1 72.96 82.59&#10;  L 73.30 82.93&#10;  Q 73.62 83.24 74.01 83.05&#10;  C 75.47 82.33 77.62 82.21 77.23 79.93&#10;  Q 77.13 79.37 77.70 79.27&#10;  C 81.25 78.66 80.83 76.07 79.38 73.62&#10;  Q 73.85 64.26 70.50 55.80&#10;  C 68.86 51.64 69.49 48.28 72.29 44.54&#10;  C 75.66 40.03 78.06 35.11 81.40 30.50&#10;  Q 83.82 27.17 86.70 22.44&#10;  Q 88.18 20.01 91.33 20.45&#10;  Q 91.84 20.52 92.29 20.29&#10;  C 95.56 18.66 98.66 16.44 102.94 16.76&#10;  Q 103.44 16.80 103.79 16.43&#10;  Q 105.77 14.37 107.85 15.18&#10;  Q 114.05 17.59 119.68 16.77&#10;  Q 122.68 16.34 123.92 18.43&#10;  Q 124.16 18.82 124.55 19.08&#10;  L 127.15 20.80&#10;  Q 127.56 21.07 127.91 20.72&#10;  L 128.19 20.44&#10;  Q 129.01 19.62 128.99 20.77&#10;  Q 128.97 22.04 130.20 21.27&#10;  Q 131.16 20.67 131.01 21.79&#10;  L 130.97 22.09&#10;  Q 130.87 22.80 130.17 22.62&#10;  C 126.51 21.67 123.98 18.78 120.78 17.97&#10;  Q 115.91 16.74 110.78 17.40&#10;  Q 110.16 17.48 110.34 18.07&#10;  Q 113.85 29.91 113.75 33.74&#10;  Q 113.62 38.84 114.10 43.98&#10;  A 0.64 0.64 0.0 0 0 115.02 44.50&#10;  Q 119.19 42.45 123.38 44.66&#10;  Q 124.34 45.16 123.26 45.16&#10;  Q 121.36 45.16 119.63 44.36&#10;  Q 119.22 44.18 118.79 44.28&#10;  L 115.73 45.04&#10;  Q 115.26 45.16 115.06 45.59&#10;  L 114.73 46.32&#10;  Q 114.55 46.71 114.18 46.49&#10;  L 113.75 46.24&#10;  Q 113.50 46.08 113.30 46.31&#10;  L 109.98 50.10&#10;  A 1.10 1.10 0.0 0 0 111.16 51.86&#10;  Q 113.69 50.99 113.78 48.34&#10;  Q 113.81 47.75 114.40 47.75&#10;  Q 114.60 47.75 114.79 47.75&#10;  Q 115.14 47.75 115.38 47.50&#10;  Q 116.95 45.89 119.15 45.27&#10;  Q 119.66 45.12 120.12 45.40&#10;  L 132.58 53.03&#10;  Q 132.92 53.24 132.62 53.51&#10;  Q 132.50 53.63 132.38 53.74&#10;  Q 132.35 53.78 132.31 53.76&#10;  Q 127.64 51.26 122.18 47.33&#10;  Q 120.93 46.43 119.18 46.06&#10;  Q 118.64 45.95 118.20 46.28&#10;  Q 114.93 48.74 112.85 52.31&#10;  Q 112.60 52.74 112.65 53.23&#10;  Q 112.72 53.99 112.48 55.25&#10;  Q 110.98 63.19 108.20 73.49&#10;  Q 107.99 74.26 108.75 74.75&#10;  Z&#10;  M 112.1774 53.8117&#10;  A 0.72 0.72 0.0 0 0 111.6485 52.9417&#10;  L 109.5693 52.4348&#10;  A 0.72 0.72 0.0 0 0 108.6993 52.9638&#10;  L 103.2426 75.3483&#10;  A 0.72 0.72 0.0 0 0 103.7715 76.2183&#10;  L 105.8507 76.7252&#10;  A 0.72 0.72 0.0 0 0 106.7207 76.1962&#10;  L 112.1774 53.8117&#10;  Z&#10;  M 75.02 83.82&#10;  Q 72.84 82.85 72.50 85.32&#10;  A 0.36 0.35 -86.4 0 0 72.85 85.72&#10;  Q 74.33 85.76 75.22 84.59&#10;  Q 75.60 84.08 75.02 83.82&#10;  Z"/>
<path class="p" fill="#10b981" fill-opacity="0.976" d="&#10;  M 141.22 31.87&#10;  A 0.88 0.87 58.0 0 0 142.47 32.16&#10;  Q 146.07 29.72 146.51 25.41&#10;  Q 146.57 24.90 146.96 24.56&#10;  L 148.07 23.59&#10;  Q 148.67 23.08 148.90 23.83&#10;  L 149.04 24.28&#10;  Q 149.24 24.90 148.69 25.25&#10;  Q 146.76 26.48 146.74 28.76&#10;  Q 146.73 29.37 146.28 29.78&#10;  L 142.31 33.36&#10;  Q 141.90 33.73 142.14 34.23&#10;  Q 146.17 42.55 148.70 51.45&#10;  Q 148.80 51.81 148.44 51.94&#10;  L 148.15 52.04&#10;  Q 147.86 52.13 147.81 51.83&#10;  L 147.46 49.75&#10;  Q 147.38 49.27 147.10 48.88&#10;  C 145.80 47.08 145.77 44.96 145.14 43.39&#10;  Q 143.68 39.72 142.17 36.08&#10;  C 140.39 31.79 137.13 27.36 135.33 22.43&#10;  Q 135.16 21.96 134.15 21.02&#10;  Q 133.77 20.68 133.28 20.54&#10;  L 128.59 19.23&#10;  Q 128.25 19.14 127.90 19.20&#10;  L 127.00 19.36&#10;  Q 126.50 19.45 126.50 18.94&#10;  Q 126.50 18.81 126.50 18.67&#10;  Q 126.50 18.34 126.82 18.37&#10;  C 131.50 18.82 135.40 19.70 137.15 24.58&#10;  C 138.11 27.26 139.86 29.48 141.22 31.87&#10;  Z"/>
<path class="p" fill="#10b981" fill-opacity="0.976" d="&#10;  M 146.81 20.65&#10;  Q 148.34 19.86 147.95 22.46&#10;  Q 147.78 23.60 147.29 22.55&#10;  L 146.64 21.15&#10;  Q 146.48 20.82 146.81 20.65&#10;  Z"/>
<path class="p" fill="#10b981" fill-opacity="0.976" d="&#10;  M 154.79 25.46&#10;  C 155.32 25.76 156.51 27.25 155.23 27.50&#10;  Q 154.85 27.58 154.70 27.22&#10;  Q 153.42 24.12 150.24 22.90&#10;  Q 149.75 22.71 149.57 22.21&#10;  Q 149.29 21.44 150.12 21.19&#10;  Q 150.63 21.03 150.70 21.56&#10;  L 150.75 21.93&#10;  Q 150.83 22.47 151.36 22.58&#10;  Q 153.26 22.98 154.11 24.75&#10;  Q 154.33 25.21 154.79 25.46&#10;  Z"/>
<path class="p" fill="#10b981" fill-opacity="0.976" d="&#10;  M 156.08 22.49&#10;  Q 156.19 22.18 156.42 22.43&#10;  C 157.03 23.09 156.90 24.71 155.86 24.94&#10;  Q 155.09 25.11 155.37 24.37&#10;  L 156.08 22.49&#10;  Z"/>
<path class="p" fill="#10b981" fill-opacity="0.976" d="&#10;  M 98.20 25.72&#10;  Q 92.85 31.76 91.87 37.81&#10;  C 91.11 42.46 87.68 45.28 87.56 49.80&#10;  Q 87.47 53.70 87.02 57.55&#10;  C 86.89 58.67 87.44 60.42 86.70 61.84&#10;  Q 86.37 62.49 86.32 61.76&#10;  Q 86.00 56.33 86.79 51.00&#10;  A 0.62 0.62 0.0 0 0 85.73 50.47&#10;  Q 82.87 53.42 85.18 56.65&#10;  Q 85.57 57.20 84.90 57.22&#10;  L 83.60 57.27&#10;  Q 83.06 57.29 82.76 57.74&#10;  C 80.13 61.64 81.13 66.76 80.96 71.22&#10;  Q 80.93 72.07 80.72 71.24&#10;  Q 78.90 64.03 81.89 57.28&#10;  Q 82.09 56.82 82.54 56.58&#10;  Q 83.85 55.85 83.11 54.48&#10;  Q 82.82 53.94 83.07 53.39&#10;  Q 83.81 51.72 85.80 49.31&#10;  Q 87.75 46.94 90.76 39.71&#10;  Q 91.37 38.24 91.87 35.00&#10;  Q 92.77 29.12 98.03 25.53&#10;  A 0.13 0.13 0.0 0 1 98.20 25.72&#10;  Z"/>
<path class="p" fill="#10b981" fill-opacity="0.976" d="&#10;  M 150.22 53.70&#10;  L 150.26 52.75&#10;  Q 150.36 50.70 150.80 52.71&#10;  C 150.83 52.84 153.94 60.74 150.85 59.20&#10;  Q 150.53 59.04 150.73 58.75&#10;  C 151.69 57.30 152.09 53.97 149.19 54.85&#10;  Q 148.71 54.99 148.35 54.65&#10;  C 143.66 50.16 134.29 48.23 126.20 45.78&#10;  Q 124.51 45.27 126.25 45.56&#10;  Q 138.77 47.63 149.67 53.99&#10;  Q 150.19 54.30 150.22 53.70&#10;  Z"/>
<path class="p" fill="#10b981" fill-opacity="0.976" d="&#10;  M 137.20 55.03&#10;  L 137.49 54.99&#10;  Q 137.73 54.96 137.83 55.17&#10;  L 139.98 59.46&#10;  Q 140.18 59.87 139.75 60.02&#10;  C 139.16 60.23 137.92 57.01 137.72 56.52&#10;  Q 137.53 56.05 137.03 56.02&#10;  C 136.42 55.99 134.58 55.45 135.00 54.50&#10;  Q 135.15 54.16 135.47 54.35&#10;  L 136.33 54.85&#10;  Q 136.73 55.10 137.20 55.03&#10;  Z"/>
<path class="p" fill="#10b981" fill-opacity="0.976" d="&#10;  M 120.53 126.31&#10;  C 124.79 131.70 130.23 133.20 136.85 130.84&#10;  Q 141.52 129.18 137.10 131.42&#10;  Q 131.54 134.25 125.75 131.37&#10;  Q 125.19 131.09 125.12 131.71&#10;  C 124.84 134.11 129.98 135.06 131.56 137.29&#10;  Q 131.87 137.72 132.33 137.48&#10;  Q 137.16 135.01 142.49 133.86&#10;  Q 145.77 133.15 142.61 134.28&#10;  Q 138.11 135.88 133.59 137.49&#10;  Q 133.15 137.65 133.20 138.12&#10;  Q 133.60 141.65 135.93 144.38&#10;  Q 136.28 144.79 136.27 145.33&#10;  C 136.21 148.76 135.86 151.69 137.15 154.98&#10;  Q 140.04 162.37 143.25 169.62&#10;  C 143.72 170.68 143.92 172.45 144.56 173.72&#10;  Q 144.81 174.23 145.36 174.09&#10;  L 150.31 172.92&#10;  Q 150.81 172.80 151.27 173.03&#10;  Q 152.28 173.53 153.25 173.03&#10;  Q 153.72 172.79 153.71 172.26&#10;  Q 153.52 154.39 149.50 139.99&#10;  Q 148.13 135.12 148.01 132.44&#10;  Q 147.99 131.99 147.64 131.70&#10;  Q 144.21 128.85 142.88 124.54&#10;  A 0.47 0.47 0.0 0 0 142.17 124.29&#10;  Q 138.22 126.91 133.41 126.60&#10;  A 0.28 0.28 0.0 0 1 133.38 126.04&#10;  C 136.74 125.49 139.78 125.67 142.48 122.78&#10;  Q 142.82 122.41 142.62 121.95&#10;  C 141.41 119.09 140.48 116.75 138.74 113.79&#10;  C 137.18 111.15 135.88 108.32 137.43 105.42&#10;  Q 137.68 104.95 137.45 104.47&#10;  C 136.24 101.85 133.42 99.50 130.74 96.88&#10;  Q 130.34 96.49 130.23 95.94&#10;  L 129.94 94.50&#10;  Q 129.83 93.99 129.35 93.78&#10;  Q 127.53 93.01 128.57 90.98&#10;  Q 128.86 90.42 128.29 90.15&#10;  C 124.58 88.35 121.59 87.90 117.67 86.86&#10;  C 114.67 86.07 112.25 84.02 109.67 82.35&#10;  Q 109.23 82.06 108.72 82.20&#10;  L 106.69 82.73&#10;  Q 106.23 82.85 106.48 82.45&#10;  L 107.47 80.87&#10;  Q 107.70 80.51 108.11 80.63&#10;  C 112.09 81.79 114.91 85.82 117.81 86.22&#10;  Q 123.49 87.01 128.76 89.26&#10;  Q 129.23 89.46 129.57 89.08&#10;  Q 130.99 87.49 132.69 86.19&#10;  Q 134.16 85.07 133.08 86.57&#10;  Q 132.10 87.93 130.81 89.02&#10;  Q 130.43 89.34 130.38 89.84&#10;  L 130.10 93.11&#10;  Q 130.02 94.00 130.92 94.00&#10;  L 136.16 94.00&#10;  Q 136.69 94.00 137.06 93.62&#10;  C 141.43 89.13 142.15 84.95 142.80 78.97&#10;  Q 142.85 78.48 143.35 78.49&#10;  C 144.95 78.52 145.49 77.58 145.37 76.06&#10;  Q 145.03 71.61 145.54 67.19&#10;  Q 145.59 66.72 145.93 66.40&#10;  L 147.40 65.00&#10;  Q 147.79 64.62 147.66 64.10&#10;  L 146.18 58.04&#10;  A 0.63 0.62 41.2 0 0 144.95 58.12&#10;  Q 144.88 58.79 144.47 59.47&#10;  Q 144.01 60.24 144.11 59.35&#10;  Q 144.35 57.29 145.39 55.51&#10;  Q 145.68 55.02 145.88 55.56&#10;  L 148.64 63.23&#10;  Q 148.81 63.69 148.62 64.15&#10;  Q 147.81 66.11 147.03 68.04&#10;  C 145.79 71.08 146.83 74.17 146.42 77.18&#10;  C 146.14 79.18 143.48 78.70 143.29 81.50&#10;  Q 142.79 89.06 137.79 94.33&#10;  Q 137.49 94.65 137.06 94.67&#10;  L 131.62 95.02&#10;  A 0.69 0.69 0.0 0 0 131.17 96.20&#10;  L 137.80 102.88&#10;  A 2.62 2.61 -50.1 0 1 138.09 106.21&#10;  C 137.11 107.62 137.31 109.52 138.24 111.08&#10;  Q 141.45 116.39 143.56 122.24&#10;  Q 143.72 122.68 143.53 123.11&#10;  C 143.00 124.32 145.24 127.77 146.16 129.04&#10;  C 147.54 130.96 149.74 131.16 148.88 134.66&#10;  Q 148.76 135.17 148.92 135.67&#10;  Q 153.82 150.86 154.35 164.99&#10;  Q 154.61 171.84 155.66 176.87&#10;  C 156.17 179.33 157.96 181.09 159.23 183.27&#10;  Q 159.50 183.75 159.01 184.00&#10;  C 158.86 184.07 158.52 184.03 158.40 183.86&#10;  Q 155.21 179.60 154.21 174.36&#10;  Q 154.06 173.56 153.40 174.05&#10;  L 152.96 174.37&#10;  Q 152.60 174.63 152.20 174.47&#10;  C 150.47 173.78 145.03 173.59 146.16 177.20&#10;  Q 147.20 180.50 146.60 183.97&#10;  Q 146.55 184.25 146.27 184.25&#10;  Q 146.13 184.25 145.98 184.25&#10;  Q 145.79 184.25 145.79 184.06&#10;  Q 145.80 179.52 144.85 175.04&#10;  Q 144.78 174.71 144.45 174.70&#10;  C 144.28 174.69 139.00 161.82 137.25 157.71&#10;  Q 134.93 152.26 135.59 145.79&#10;  Q 135.64 145.24 135.29 144.82&#10;  Q 133.16 142.28 132.26 139.13&#10;  Q 132.12 138.63 131.72 138.28&#10;  C 130.01 136.80 129.23 136.22 126.83 135.08&#10;  Q 124.52 133.99 124.09 131.19&#10;  Q 124.01 130.69 123.58 130.42&#10;  C 121.65 129.27 120.42 127.20 119.35 126.05&#10;  C 116.49 123.00 114.26 119.98 110.75 117.61&#10;  C 105.18 113.86 102.25 110.46 94.77 112.28&#10;  Q 79.97 115.87 67.40 124.23&#10;  C 66.21 125.03 55.17 130.46 56.14 133.26&#10;  Q 56.30 133.72 56.21 134.20&#10;  C 55.84 136.15 54.87 137.33 54.80 139.30&#10;  Q 54.62 144.25 53.91 149.13&#10;  C 53.46 152.22 52.00 154.59 50.60 157.31&#10;  Q 50.38 157.74 49.90 157.74&#10;  Q 49.06 157.75 48.66 158.52&#10;  Q 48.27 159.25 48.02 158.47&#10;  C 47.76 157.68 50.04 156.45 50.59 155.54&#10;  Q 54.09 149.78 53.67 141.51&#10;  Q 53.53 138.62 55.37 134.83&#10;  Q 55.58 134.39 55.35 133.95&#10;  C 53.71 130.88 61.10 126.84 63.02 126.10&#10;  Q 63.49 125.92 63.64 125.45&#10;  Q 63.83 124.87 64.34 124.98&#10;  Q 64.80 125.07 65.18 124.81&#10;  Q 78.59 115.42 94.51 111.51&#10;  C 97.87 110.68 102.71 111.31 106.00 113.36&#10;  Q 114.39 118.55 120.53 126.31&#10;  Z"/>
<path class="p" fill="#10b981" fill-opacity="0.976" d="&#10;  M 141.54 59.17&#10;  L 141.31 58.94&#10;  Q 141.13 58.75 141.31 58.56&#10;  L 141.49 58.38&#10;  Q 141.74 58.14 141.92 58.43&#10;  L 142.94 60.08&#10;  Q 143.35 60.75 142.64 60.43&#10;  Q 142.05 60.16 141.81 59.57&#10;  Q 141.71 59.34 141.54 59.17&#10;  Z"/>
<path class="p" fill="#10b981" fill-opacity="0.976" d="&#10;  M 149.41 59.73&#10;  Q 149.91 59.09 150.01 59.90&#10;  Q 150.15 60.91 149.70 61.70&#10;  Q 149.35 62.33 149.12 61.65&#10;  Q 148.75 60.56 149.41 59.73&#10;  Z"/>
<path class="p" fill="#10b981" fill-opacity="0.976" d="&#10;  M 135.57 71.31&#10;  Q 135.60 71.47 135.45 71.64&#10;  Q 135.18 71.93 135.10 71.54&#10;  L 133.68 64.87&#10;  Q 133.62 64.59 133.90 64.51&#10;  C 134.39 64.38 135.43 70.58 135.57 71.31&#10;  Z"/>
<path class="p" fill="#10b981" fill-opacity="0.976" d="&#10;  M 101.71 71.87&#10;  A 0.17 0.17 0.0 0 1 101.60 72.19&#10;  Q 97.29 71.30 94.10 68.27&#10;  Q 93.37 67.57 94.27 68.04&#10;  L 101.71 71.87&#10;  Z"/>
<path class="p" fill="#10b981" fill-opacity="0.976" d="&#10;  M 127.95 69.83&#10;  Q 127.47 69.25 127.50 68.50&#10;  Q 127.58 66.31 128.17 68.31&#10;  L 128.53 69.52&#10;  A 0.34 0.34 0.0 0 1 127.95 69.83&#10;  Z"/>
<path class="p" fill="#10b981" fill-opacity="0.976" d="&#10;  M 128.74 71.23&#10;  Q 129.47 71.67 129.50 72.50&#10;  Q 129.52 73.20 128.94 72.81&#10;  Q 128.61 72.58 128.50 72.25&#10;  Q 127.99 70.79 128.74 71.23&#10;  Z"/>
<path class="p" fill="#10b981" fill-opacity="0.976" d="&#10;  M 136.78 73.13&#10;  Q 136.87 72.26 137.57 71.59&#10;  Q 138.23 70.95 137.95 71.83&#10;  C 137.45 73.33 134.07 84.94 133.51 85.06&#10;  Q 132.90 85.18 133.13 84.61&#10;  Q 135.31 78.99 135.49 72.98&#10;  A 0.27 0.27 0.0 0 1 135.97 72.83&#10;  L 136.29 73.27&#10;  Q 136.71 73.83 136.78 73.13&#10;  Z"/>
<path class="p" fill="#10b981" fill-opacity="0.976" d="&#10;  M 108.75 74.75&#10;  Q 111.19 74.86 113.28 76.08&#10;  Q 113.98 76.49 113.17 76.48&#10;  Q 110.69 76.44 108.75 74.75&#10;  Z"/>
<path class="p" fill="#10b981" fill-opacity="0.976" d="&#10;  M 73.66 81.20&#10;  Q 74.41 79.58 76.15 79.30&#10;  Q 77.37 79.10 76.36 79.82&#10;  L 74.01 81.49&#10;  Q 73.29 82.01 73.66 81.20&#10;  Z"/>
<path class="p" fill="#10b981" fill-opacity="0.976" d="&#10;  M 63.24 124.14&#10;  A 0.33 0.33 0.0 0 1 63.14 124.80&#10;  Q 58.46 124.22 53.89 123.13&#10;  A 0.30 0.30 0.0 0 1 54.01 122.54&#10;  L 63.24 124.14&#10;  Z"/>
<path class="p" fill="#10b981" fill-opacity="0.976" d="&#10;  M 52.62 129.15&#10;  C 53.41 128.97 55.13 129.35 55.54 130.25&#10;  Q 55.79 130.80 55.23 130.58&#10;  L 52.59 129.55&#10;  Q 51.95 129.30 52.62 129.15&#10;  Z"/>
<path class="p" fill="#10b981" fill-opacity="0.976" d="&#10;  M 36.89 137.16&#10;  Q 37.73 137.78 36.73 138.66&#10;  Q 36.21 139.11 36.24 150.42&#10;  L 36.29 137.44&#10;  Q 36.32 136.74 36.89 137.16&#10;  Z"/>
<path class="p" fill="#10b981" fill-opacity="0.976" d="&#10;  M 34.51 162.60&#10;  Q 34.80 162.45 34.69 162.02&#10;  Q 34.04 159.33 34.87 157.02&#10;  A 0.32 0.32 0.0 0 1 35.48 157.06&#10;  Q 36.62 162.19 34.57 166.81&#10;  Q 34.33 167.36 34.29 167.96&#10;  L 34.18 170.26&#10;  Q 34.14 170.95 33.63 170.49&#10;  Q 33.46 170.34 33.33 170.19&#10;  Q 33.22 170.08 33.22 169.92&#10;  L 33.31 162.79&#10;  A 0.51 0.51 0.0 0 1 33.71 162.29&#10;  Q 34.22 162.16 34.25 162.46&#10;  Q 34.27 162.73 34.51 162.60&#10;  Z"/>
<path class="p" fill="#10b981" fill-opacity="0.976" d="&#10;  M 44.37 158.64&#10;  A 0.18 0.18 0.0 0 1 44.46 158.98&#10;  Q 43.65 159.44 42.98 159.21&#10;  Q 39.28 157.95 42.94 158.57&#10;  Q 43.44 158.65 44.37 158.64&#10;  Z"/>
<path class="p" fill="#10b981" fill-opacity="0.976" d="&#10;  M 50.25 161.54&#10;  L 50.25 159.53&#10;  Q 50.25 157.82 50.60 159.49&#10;  C 51.38 163.30 48.61 169.00 46.77 172.36&#10;  C 44.70 176.16 46.66 180.84 49.65 183.56&#10;  A 0.38 0.38 0.0 0 1 49.41 184.22&#10;  L 48.57 184.26&#10;  Q 48.19 184.28 48.06 183.91&#10;  Q 47.53 182.36 46.34 181.23&#10;  Q 45.95 180.86 45.85 180.34&#10;  C 45.28 177.49 44.47 172.28 46.95 170.64&#10;  Q 47.42 170.33 47.52 169.77&#10;  Q 48.17 165.96 49.99 162.56&#10;  Q 50.25 162.09 50.25 161.54&#10;  Z"/>
<path class="p" fill="#10b981" fill-opacity="0.976" d="&#10;  M 45.44 170.83&#10;  C 44.43 171.36 36.61 172.11 36.58 171.80&#10;  Q 36.53 171.24 37.09 171.21&#10;  L 42.72 170.91&#10;  Q 43.08 170.89 43.40 170.73&#10;  Q 44.38 170.24 45.41 169.99&#10;  Q 48.44 169.26 45.44 170.83&#10;  Z"/>
<path class="p" fill="#10b981" fill-opacity="0.976" d="&#10;  M 33.12 184.28&#10;  A 0.22 0.22 0.0 0 1 32.99 184.00&#10;  L 33.04 183.85&#10;  A 11.16 0.66 -70.5 0 1 37.39 173.55&#10;  L 37.39 173.55&#10;  A 11.16 0.66 -70.5 0 1 34.28 184.29&#10;  L 34.23 184.44&#10;  A 0.22 0.22 0.0 0 1 33.95 184.58&#10;  L 33.12 184.28&#10;  Z"/>
<path class="p" fill="#10b981" fill-opacity="0.976" d="&#10;  M 43.75 187.50&#10;  Q 43.49 187.83 43.21 187.72&#10;  Q 42.00 187.22 43.25 187.24&#10;  Q 46.00 187.28 48.75 187.21&#10;  Q 50.53 187.16 48.79 187.53&#10;  Q 46.24 188.08 43.75 187.50&#10;  Z"/>
</svg>