<svg 
 xmlns="http://www.w3.org/2000/svg"
 xmlns:xlink="http://www.w3.org/1999/xlink"
 width="339px" height="83px">
  <def>
    <style> 
      .p {
        fill: none;
        animation: stroke 10s ease forwards infinite;
        transform-origin: center;
        stroke: #10b981;
        /* stroke-width: 3; */
        stroke-dashoffset: 1px;
        stroke-dasharray: 350px 0;
        animation-delay: 0s;
      }
      @keyframes stroke {
        0% {
          stroke-dashoffset: 339px;
          stroke-dasharray: 0 350px;
          opacity: 0;
        }
        10% {
          opacity: 1;
        }
        40% {
          stroke-dasharray: 350px 0;
        }
        85% {
          stroke-dasharray: 350px 0;
        }
        95%, 100% {
          stroke-dasharray: 0 350px;
        }
      }
    </style>
  </def>
<path class="p1" fill="#10b981"
 d="M337.568,45.787 C333.621,51.430 326.349,54.494 318.558,54.736 C312.325,54.897 306.092,53.607 302.560,48.528 C302.179,48.017 301.862,47.458 301.600,46.876 C298.768,49.800 292.153,54.494 284.800,54.494 C278.463,54.494 274.516,51.672 274.516,46.109 C274.516,44.739 274.724,43.126 275.243,41.514 C279.295,28.131 291.033,13.217 301.213,4.913 C303.187,3.381 305.057,2.898 307.030,4.349 C309.316,5.881 310.458,8.138 310.458,10.234 C310.458,11.363 310.355,12.249 309.835,13.620 C306.615,23.214 295.292,32.727 286.151,37.483 C284.073,41.595 282.723,45.223 282.723,48.044 C282.723,49.979 283.346,51.350 284.696,51.350 C289.475,51.350 295.500,45.948 299.447,40.144 C300.232,38.972 301.331,38.487 302.258,38.693 C302.750,38.032 303.359,37.428 304.119,36.919 C306.196,35.548 307.754,35.951 308.066,37.886 C311.494,34.097 315.130,29.905 317.831,26.438 C318.246,23.536 319.493,21.682 321.882,20.150 C323.544,19.021 325.414,18.457 326.972,18.457 C329.777,18.457 330.400,20.231 327.180,24.342 C327.076,25.310 326.972,26.680 326.972,27.728 C326.972,33.452 328.323,38.692 328.115,43.046 C328.011,45.061 327.492,47.319 326.349,49.092 C330.608,46.835 333.517,44.174 335.386,40.224 C336.321,38.370 337.880,38.934 338.607,40.224 C339.126,41.030 339.438,43.288 337.568,45.787 ZM300.382,20.714 C303.914,16.119 305.265,12.572 304.641,12.249 C304.226,12.088 301.525,15.232 297.993,19.989 C295.292,23.536 290.721,29.582 289.994,30.953 C294.461,27.567 297.993,23.859 300.382,20.714 ZM317.831,34.339 C315.338,37.403 312.429,40.869 309.313,44.336 C310.559,48.125 312.741,50.946 315.026,50.946 C317.207,50.946 318.142,46.916 318.142,41.675 C318.142,39.096 318.039,36.516 317.831,34.339 ZM267.773,37.483 C265.591,44.174 258.943,52.075 251.048,54.171 C250.113,54.413 248.866,54.655 247.308,54.655 C243.880,54.655 240.037,53.526 237.128,50.543 C235.154,48.528 234.219,46.109 234.219,43.530 C234.219,41.272 234.739,39.418 235.881,36.999 C234.739,37.241 233.388,37.403 232.246,37.483 C230.064,44.174 223.416,52.075 215.521,54.171 C214.586,54.413 213.339,54.655 211.781,54.655 C208.353,54.655 204.510,53.526 201.601,50.543 C200.138,49.049 199.249,47.333 198.885,45.495 C197.201,48.066 190.374,54.655 181.867,54.655 C176.361,54.655 171.583,51.188 171.583,45.626 C171.583,43.852 172.206,41.595 173.660,38.934 C175.738,34.984 179.685,28.615 183.841,22.810 C180.620,22.488 178.750,21.601 177.919,20.634 C176.465,18.941 177.504,18.135 179.893,18.215 C182.282,18.296 185.087,18.215 187.373,18.054 C190.593,13.701 192.774,11.040 195.164,8.380 C196.722,6.606 197.968,6.687 199.111,8.218 C199.838,9.186 200.254,10.556 200.254,11.524 C200.254,12.975 199.838,14.829 198.592,17.087 C201.812,17.409 203.578,18.699 204.305,19.666 C205.344,21.117 204.617,22.085 202.123,21.843 C200.254,21.682 197.553,21.843 195.267,22.085 C191.320,27.325 185.399,35.306 181.763,41.433 C180.516,43.610 179.893,45.706 179.893,47.480 C179.893,49.898 180.932,51.591 182.698,51.591 C186.749,51.591 192.151,46.512 195.787,40.466 C196.677,38.959 198.320,38.534 199.348,39.446 C200.070,37.075 201.356,34.627 203.055,32.243 C207.730,25.793 214.274,21.762 221.130,21.762 C224.143,21.762 226.013,22.649 227.987,24.745 C230.895,27.406 233.492,28.051 232.973,34.017 C236.193,33.210 239.517,30.792 241.906,28.373 C246.166,24.987 250.321,21.762 256.657,21.762 C259.670,21.762 261.540,22.649 263.513,24.745 C266.422,27.406 269.331,27.970 268.396,34.823 C271.097,34.823 271.304,35.548 270.473,36.354 C269.746,36.999 268.915,37.322 267.773,37.483 ZM217.079,29.744 C214.898,31.356 212.924,33.372 211.158,35.790 C208.457,39.660 206.795,44.174 206.795,47.157 C206.795,49.576 207.730,50.543 209.288,50.543 C211.989,50.543 216.144,47.560 219.988,42.078 C221.546,39.982 222.793,37.967 223.416,36.274 C220.092,34.661 217.910,32.565 217.079,29.744 ZM224.974,26.680 C224.351,26.680 223.416,27.325 223.416,28.615 C223.416,30.066 223.935,32.162 225.078,33.210 C226.117,31.356 226.532,29.421 226.532,28.373 C226.532,27.164 225.701,26.680 224.974,26.680 ZM252.606,29.744 C250.425,31.356 248.451,33.372 246.685,35.790 C243.984,39.660 242.322,44.174 242.322,47.157 C242.322,49.576 243.257,50.543 244.815,50.543 C247.516,50.543 251.671,47.560 255.515,42.078 C257.073,39.982 258.319,37.967 258.943,36.274 C255.619,34.661 253.437,32.565 252.606,29.744 ZM260.501,26.680 C259.878,26.680 258.943,27.325 258.943,28.615 C258.943,30.066 259.462,32.162 260.605,33.210 C261.644,31.356 262.059,29.421 262.059,28.373 C262.059,27.164 261.228,26.680 260.501,26.680 ZM164.627,36.999 C163.484,36.919 162.446,36.919 161.407,36.919 C155.901,36.919 150.707,37.806 146.656,37.644 C141.254,37.483 139.073,35.629 138.242,33.049 C138.034,32.243 138.969,31.437 140.527,31.437 C148.006,31.437 153.408,30.792 158.187,30.792 C164.004,30.792 166.185,32.807 166.913,35.306 C167.224,36.354 166.705,37.080 164.627,36.999 ZM116.951,54.736 C110.095,54.736 106.979,52.075 106.979,47.883 C106.979,42.804 112.069,35.790 116.016,31.034 C117.990,28.373 119.548,26.438 118.821,26.438 C117.886,26.438 108.018,31.517 102.512,38.451 C98.980,42.965 95.240,48.528 92.747,53.365 C91.916,54.816 90.358,55.058 89.111,53.849 C87.532,52.393 86.148,50.567 88.242,45.824 C84.065,50.574 77.317,53.499 68.964,56.187 C63.250,66.828 56.186,79.727 47.149,82.388 C44.760,83.113 42.578,83.113 40.085,80.534 C38.527,78.841 36.969,76.422 36.969,73.842 C36.969,72.875 37.280,71.504 37.904,70.053 C41.124,63.120 49.538,58.202 59.614,55.058 L61.173,52.236 C58.472,53.768 55.771,54.494 52.655,54.494 C47.564,54.494 45.273,51.550 45.184,48.245 C41.727,51.908 36.098,54.736 30.533,54.736 C23.677,54.736 20.561,52.075 20.561,47.883 C20.561,42.804 25.651,35.790 29.598,31.034 C31.572,28.373 33.130,26.438 32.403,26.438 C31.468,26.438 21.599,31.517 16.094,38.451 C12.562,42.965 8.822,48.528 6.329,53.365 C5.498,54.816 3.940,55.058 2.693,53.849 C1.031,52.317 -0.423,50.382 2.174,45.061 C6.329,36.596 26.897,9.589 35.312,1.205 C36.974,-0.408 38.532,-0.085 39.467,1.527 C39.986,2.414 40.298,3.462 40.298,4.591 C40.298,6.767 39.051,9.750 36.558,13.136 C34.480,15.797 28.040,23.294 27.001,24.423 C30.118,22.649 33.753,21.682 35.727,21.682 C38.740,21.682 41.752,24.181 41.752,27.325 C41.752,28.454 41.440,29.582 40.609,30.711 C34.896,38.612 32.299,41.998 31.156,43.933 C30.221,45.706 29.806,47.399 29.806,48.689 C29.806,50.382 30.325,51.430 31.780,51.430 C35.415,51.430 40.921,45.706 44.037,40.788 C44.765,39.579 46.427,39.418 47.258,40.788 C47.269,40.809 47.280,40.835 47.291,40.856 C49.908,35.769 54.621,28.524 60.446,22.327 C61.796,20.956 63.354,20.876 64.497,22.166 C65.536,23.294 66.471,24.745 66.471,26.035 C66.471,28.051 65.224,30.389 62.835,33.372 C59.303,37.725 57.121,41.030 55.148,44.819 C53.693,47.722 52.758,50.946 55.459,50.946 C58.160,50.946 62.835,46.190 67.925,39.499 C74.885,30.389 77.690,25.471 80.183,22.569 C81.637,21.117 82.987,20.956 84.130,21.843 C85.688,23.052 86.104,24.262 86.104,25.955 C86.104,27.567 85.584,29.341 84.234,31.356 C81.221,35.871 75.820,43.691 71.561,51.350 C77.897,48.367 83.299,44.255 86.623,40.627 C87.974,39.176 89.532,39.015 89.947,40.063 C90.192,40.670 90.266,41.458 90.102,42.338 C96.366,31.867 114.075,8.832 121.730,1.205 C123.392,-0.408 124.950,-0.085 125.885,1.527 C126.404,2.414 126.716,3.462 126.716,4.591 C126.716,6.767 125.469,9.750 122.976,13.136 C120.899,15.797 114.458,23.294 113.419,24.423 C116.536,22.649 120.172,21.682 122.145,21.682 C125.158,21.682 128.170,24.181 128.170,27.325 C128.170,28.454 127.859,29.582 127.028,30.711 C121.314,38.612 118.717,41.998 117.575,43.933 C116.640,45.706 116.224,47.399 116.224,48.689 C116.224,50.382 116.743,51.430 118.198,51.430 C121.834,51.430 127.339,45.706 130.456,40.788 C131.183,39.579 132.845,39.418 133.676,40.788 C134.195,41.756 134.922,43.610 133.364,46.029 C130.352,50.705 123.600,54.736 116.951,54.736 ZM46.214,69.569 C43.617,73.359 42.890,76.664 43.929,77.389 C44.656,77.873 46.837,75.535 49.746,71.585 C51.927,68.602 54.420,64.652 56.914,60.298 C51.927,62.959 48.395,66.425 46.214,69.569 Z"/>
</svg>